<?xml version="1.0" encoding="UTF-8" standalone="no"?>
<!-- Created with Inkscape (http://www.inkscape.org/) -->

<svg
   xmlns:dc="http://purl.org/dc/elements/1.1/"
   xmlns:cc="http://creativecommons.org/ns#"
   xmlns:rdf="http://www.w3.org/1999/02/22-rdf-syntax-ns#"
   xmlns:svg="http://www.w3.org/2000/svg"
   xmlns="http://www.w3.org/2000/svg"
   xmlns:sodipodi="http://sodipodi.sourceforge.net/DTD/sodipodi-0.dtd"
   xmlns:inkscape="http://www.inkscape.org/namespaces/inkscape"
   width="32px"
   height="32px"
   id="svg3031"
   version="1.1"
   inkscape:version="0.48.4 r9939"
   sodipodi:docname="vlang-icon.svg"
   inkscape:export-filename="/home/puneet/inkscape/vlang-icon.png"
   inkscape:export-xdpi="90"
   inkscape:export-ydpi="90">
  <defs
     id="defs3033" />
  <sodipodi:namedview
     id="base"
     pagecolor="#ffffff"
     bordercolor="#666666"
     borderopacity="1.0"
     inkscape:pageopacity="0.0"
     inkscape:pageshadow="2"
     inkscape:zoom="11.197802"
     inkscape:cx="8.4746542"
     inkscape:cy="15.729831"
     inkscape:current-layer="layer1"
     showgrid="true"
     inkscape:grid-bbox="true"
     inkscape:document-units="px"
     inkscape:window-width="1366"
     inkscape:window-height="744"
     inkscape:window-x="0"
     inkscape:window-y="24"
     inkscape:window-maximized="1"
     showguides="true"
     inkscape:guide-bbox="true">
    <inkscape:grid
       type="xygrid"
       id="grid3055"
       empspacing="5"
       visible="true"
       enabled="true"
       snapvisiblegridlinesonly="true" />
  </sodipodi:namedview>
  <metadata
     id="metadata3036">
    <rdf:RDF>
      <cc:Work
         rdf:about="">
        <dc:format>image/svg+xml</dc:format>
        <dc:type
           rdf:resource="http://purl.org/dc/dcmitype/StillImage" />
        <dc:title />
      </cc:Work>
    </rdf:RDF>
  </metadata>
  <g
     id="layer1"
     inkscape:label="Layer 1"
     inkscape:groupmode="layer">
    <rect
       style="opacity:0.98999999000000005;fill:#cccccc;fill-opacity:1;stroke:none"
       id="rect3057"
       width="32"
       height="32"
       x="0"
       y="0" />
    <g
       id="g3983"
       transform="translate(23.909414,-242.68751)">
      <g
         transform="translate(-0.99999971,0)"
         id="g3795">
        <rect
           style="fill:#ffffff;stroke:none"
           id="rect3902-7-9-9-0-0-9-9-2"
           width="23"
           height="22.999994"
           x="-22.909414"
           y="251.68752"
           ry="0" />
        <path
           inkscape:connector-curvature="0"
           sodipodi:nodetypes="cssscccscscc"
           d="m -14.909413,262.7125 c 2,7 4.9999996,-0.025 4.9999996,-0.025 5.9999991,-11.99999 14.999999,-19.99999 17.9999991,-19.99999 1,0 1,1 1,1 -1,4 -1,4 -1,4 0,0 -7,5 -12,15 -4,7.99999 -6.9999997,12 -9.9999987,11.99998 -3.000001,2e-5 -5,-3 -7,-13 0,0 0,-1 -1,-1 0,0 -1,-1e-5 -1,-2 0,-2.00001 1.999999,-4.99998 3.999999,-4.99998 1,0 1.999991,-0.97502 4.000001,9.02499 z"
           id="path3956-1-3-6-3-1-3-6-0-7-4"
           style="fill:#375eab;fill-opacity:1;stroke:#efefef;stroke-width:0;stroke-linecap:round;stroke-linejoin:round;stroke-miterlimit:4;stroke-opacity:1;stroke-dasharray:none" />
      </g>
    </g>
  </g>
</svg>
