<?xml version="1.0" encoding="UTF-8" standalone="no"?>
<!-- Created with Inkscape (http://www.inkscape.org/) -->

<svg
   xmlns:dc="http://purl.org/dc/elements/1.1/"
   xmlns:cc="http://creativecommons.org/ns#"
   xmlns:rdf="http://www.w3.org/1999/02/22-rdf-syntax-ns#"
   xmlns:svg="http://www.w3.org/2000/svg"
   xmlns="http://www.w3.org/2000/svg"
   xmlns:sodipodi="http://sodipodi.sourceforge.net/DTD/sodipodi-0.dtd"
   xmlns:inkscape="http://www.inkscape.org/namespaces/inkscape"
   width="32px"
   height="32px"
   id="svg3031"
   version="1.1"
   inkscape:version="0.48.4 r9939"
   sodipodi:docname="vlang-icon.svg"
   inkscape:export-filename="/home/puneet/inkscape/vlang-icon.png"
   inkscape:export-xdpi="90"
   inkscape:export-ydpi="90">
  <defs
     id="defs3033" />
  <sodipodi:namedview
     id="base"
     pagecolor="#ffffff"
     bordercolor="#666666"
     borderopacity="1.0"
     inkscape:pageopacity="0.0"
     inkscape:pageshadow="2"
     inkscape:zoom="11.197802"
     inkscape:cx="15.663565"
     inkscape:cy="15.729831"
     inkscape:current-layer="layer1"
     showgrid="true"
     inkscape:grid-bbox="true"
     inkscape:document-units="px"
     inkscape:window-width="1366"
     inkscape:window-height="744"
     inkscape:window-x="0"
     inkscape:window-y="24"
     inkscape:window-maximized="1"
     showguides="true"
     inkscape:guide-bbox="true">
    <inkscape:grid
       type="xygrid"
       id="grid3055"
       empspacing="5"
       visible="true"
       enabled="true"
       snapvisiblegridlinesonly="true" />
  </sodipodi:namedview>
  <metadata
     id="metadata3036">
    <rdf:RDF>
      <cc:Work
         rdf:about="">
        <dc:format>image/svg+xml</dc:format>
        <dc:type
           rdf:resource="http://purl.org/dc/dcmitype/StillImage" />
        <dc:title />
      </cc:Work>
    </rdf:RDF>
  </metadata>
  <g
     id="layer1"
     inkscape:label="Layer 1"
     inkscape:groupmode="layer">
    <rect
       style="opacity:0.98999999000000005;fill:#cccccc;fill-opacity:1;stroke:none"
       id="rect3057"
       width="32"
       height="32"
       x="0"
       y="0" />
    <g
       id="g3795"
       transform="matrix(0.66666665,0,0,0.66666665,18.606276,-154.45832)">
      <rect
         y="250.68748"
         x="-24.909414"
         height="26.000008"
         width="26"
         id="rect3902-7-9-9-0-0-9-9-2-2"
         style="fill:#ffffff;stroke:none" />
      <path
         style="fill:#375eab;fill-opacity:1;stroke:#efefef;stroke-width:0;stroke-linecap:round;stroke-linejoin:round;stroke-miterlimit:4;stroke-opacity:1;stroke-dasharray:none"
         id="path3956-1-3-6-3-1-3-6-0-7-4-6"
         d="m -14.909413,262.7125 c 2,7 4.9999996,-0.025 4.9999996,-0.025 9.9999991,-20 21.9999994,-28.00001 26.0000004,-28.00001 1,0 1,1 1,1 -1,5 -1,4 -1,4 0,0 -11.0000004,5 -20.0000004,24 -4,7.99999 -6,11 -9.9999996,11 -4.000001,-1e-5 -5,-3 -7,-13 0,0 0,-1 -1,-1 0,0 -1,-1e-5 -1,-2 0,-2.00001 2,-6 4,-6 1,0 1.99999,0.025 4,10.02502 z"
         sodipodi:nodetypes="cssscccscsccc"
         inkscape:connector-curvature="0" />
    </g>
  </g>
</svg>
