<?xml version="1.0" encoding="UTF-8" standalone="no"?>
<!-- Created with Inkscape (http://www.inkscape.org/) -->

<svg
   xmlns:dc="http://purl.org/dc/elements/1.1/"
   xmlns:cc="http://creativecommons.org/ns#"
   xmlns:rdf="http://www.w3.org/1999/02/22-rdf-syntax-ns#"
   xmlns:svg="http://www.w3.org/2000/svg"
   xmlns="http://www.w3.org/2000/svg"
   xmlns:sodipodi="http://sodipodi.sourceforge.net/DTD/sodipodi-0.dtd"
   xmlns:inkscape="http://www.inkscape.org/namespaces/inkscape"
   width="32px"
   height="32px"
   id="svg3031"
   version="1.1"
   inkscape:version="0.48.4 r9939"
   sodipodi:docname="vlang-icon.svg"
   inkscape:export-filename="/home/puneet/inkscape/vlang-icon.png"
   inkscape:export-xdpi="90"
   inkscape:export-ydpi="90">
  <defs
     id="defs3033" />
  <sodipodi:namedview
     id="base"
     pagecolor="#ffffff"
     bordercolor="#666666"
     borderopacity="1.0"
     inkscape:pageopacity="0.0"
     inkscape:pageshadow="2"
     inkscape:zoom="11.197802"
     inkscape:cx="-6.4389869"
     inkscape:cy="15.729831"
     inkscape:current-layer="layer1"
     showgrid="true"
     inkscape:grid-bbox="true"
     inkscape:document-units="px"
     inkscape:window-width="1366"
     inkscape:window-height="744"
     inkscape:window-x="0"
     inkscape:window-y="24"
     inkscape:window-maximized="1"
     showguides="true"
     inkscape:guide-bbox="true">
    <inkscape:grid
       type="xygrid"
       id="grid3055"
       empspacing="5"
       visible="true"
       enabled="true"
       snapvisiblegridlinesonly="true" />
  </sodipodi:namedview>
  <metadata
     id="metadata3036">
    <rdf:RDF>
      <cc:Work
         rdf:about="">
        <dc:format>image/svg+xml</dc:format>
        <dc:type
           rdf:resource="http://purl.org/dc/dcmitype/StillImage" />
        <dc:title />
      </cc:Work>
    </rdf:RDF>
  </metadata>
  <g
     id="layer1"
     inkscape:label="Layer 1"
     inkscape:groupmode="layer">
    <rect
       style="opacity:0.98999999000000005;fill:#cccccc;fill-opacity:1;stroke:none"
       id="rect3057"
       width="32"
       height="32"
       x="0"
       y="0" />
    <g
       id="g3983"
       transform="translate(23.909414,-242.68751)">
      <g
         transform="translate(-0.99999971,0)"
         id="g3795">
        <rect
           style="fill:#ffffff;stroke:none"
           id="rect3902-7-9-9-0-0-9-9-2"
           width="23"
           height="22.999994"
           x="-22.909414"
           y="251.68752"
           ry="0" />
      </g>
    </g>
    <path
       inkscape:connector-curvature="0"
       sodipodi:nodetypes="cssscccscscc"
       d="m 8.0000002,22.000005 c 1.999999,6 5.0000008,-1.00001 5.0000008,-1.00001 6.999999,-13.9999898 16,-20.99999982 18,-20.99999982 0.999999,0 0.999999,1 0.999999,1 -0.999999,5.00000002 -0.999999,5.00000002 -0.999999,5.00000002 0,0 -6.000001,3.00001 -12,14.9999998 -4,7.99999 -7.000002,11.00001 -10.0000008,11.00001 -3.000001,0 -5,-2 -7,-12 0,0 0,-1 -1,-1 0,0 -1,-1e-5 -1,-2 0,-2.00001 2.000001,-6.00001 4.000001,-6.00001 1,0 1.999989,1 3.999999,11.00001 z"
       id="path3956-1-3-6-3-1-3-6-0-7-4-4-7"
       style="fill:#375eab;fill-opacity:1;stroke:#efefef;stroke-width:0;stroke-linecap:round;stroke-linejoin:round;stroke-miterlimit:4;stroke-opacity:1;stroke-dasharray:none" />
  </g>
</svg>
