<?xml version="1.0" encoding="UTF-8" standalone="no"?>
<!-- Created with Inkscape (http://www.inkscape.org/) -->

<svg
   xmlns:dc="http://purl.org/dc/elements/1.1/"
   xmlns:cc="http://creativecommons.org/ns#"
   xmlns:rdf="http://www.w3.org/1999/02/22-rdf-syntax-ns#"
   xmlns:svg="http://www.w3.org/2000/svg"
   xmlns="http://www.w3.org/2000/svg"
   xmlns:sodipodi="http://sodipodi.sourceforge.net/DTD/sodipodi-0.dtd"
   xmlns:inkscape="http://www.inkscape.org/namespaces/inkscape"
   width="32px"
   height="32px"
   id="svg3031"
   version="1.1"
   inkscape:version="0.48.4 r9939"
   sodipodi:docname="vlang-icon.svg"
   inkscape:export-filename="/home/puneet/inkscape/vlang-icon.png"
   inkscape:export-xdpi="90"
   inkscape:export-ydpi="90">
  <defs
     id="defs3033" />
  <sodipodi:namedview
     id="base"
     pagecolor="#ffffff"
     bordercolor="#666666"
     borderopacity="1.0"
     inkscape:pageopacity="0.0"
     inkscape:pageshadow="2"
     inkscape:zoom="15.999999"
     inkscape:cx="30.223566"
     inkscape:cy="15.729831"
     inkscape:current-layer="layer1"
     showgrid="true"
     inkscape:grid-bbox="true"
     inkscape:document-units="px"
     inkscape:window-width="1366"
     inkscape:window-height="744"
     inkscape:window-x="0"
     inkscape:window-y="24"
     inkscape:window-maximized="1"
     showguides="true"
     inkscape:guide-bbox="true">
    <inkscape:grid
       type="xygrid"
       id="grid3055"
       empspacing="5"
       visible="true"
       enabled="true"
       snapvisiblegridlinesonly="true" />
  </sodipodi:namedview>
  <metadata
     id="metadata3036">
    <rdf:RDF>
      <cc:Work
         rdf:about="">
        <dc:format>image/svg+xml</dc:format>
        <dc:type
           rdf:resource="http://purl.org/dc/dcmitype/StillImage" />
        <dc:title />
      </cc:Work>
    </rdf:RDF>
  </metadata>
  <g
     id="layer1"
     inkscape:label="Layer 1"
     inkscape:groupmode="layer">
    <rect
       style="opacity:0.98999999000000005;fill:#e6e0e0;fill-opacity:1;stroke:none"
       id="rect3057"
       width="32"
       height="32"
       x="0"
       y="0" />
    <g
       transform="translate(22.971914,-242.75)"
       id="g3784">
      <rect
         transform="translate(-0.0625,0.06249)"
         style="fill:#ffffff;stroke:none"
         id="rect3902-7-9-9-0-0-9-9-2-3"
         width="22"
         height="21.999994"
         x="-22.909414"
         y="252.68752" />
    </g>
    <path
       style="fill:#375eab;fill-opacity:1;stroke:#efefef;stroke-width:0;stroke-linecap:round;stroke-linejoin:round;stroke-miterlimit:4;stroke-opacity:1;stroke-dasharray:none"
       id="path3956-1-3-6-3-1-3-6-0-7-4-4-7"
       d="m 7.9999999,22 c 1.9999992,9 5.9999991,0 5.9999991,0 7,-14.0000002 12,-22.00000013 17.000002,-22.00000013 0.999999,0 0.999999,1 0.999999,1 -0.999999,4.99999993 -0.999999,4.99999993 -0.999999,4.99999993 0,0 -4.000002,2 -11.000002,16.0000002 -4,7.99999 -6.000001,10 -9.9999999,10 -4.0000002,0 -5.9999992,-2 -7.9999992,-12 0,0 0,-1 -1,-1 0,0 -1.00000000000001,0 -1.00000000000001,-2 0,-2 2.00000100000001,-6 4.00000100000001,-6 1,0 1.999989,1 3.999999,11 z"
       sodipodi:nodetypes="cssscccscscc"
       inkscape:connector-curvature="0" />
  </g>
</svg>
